<svg xmlns="http://www.w3.org/2000/svg" viewBox="0 0 18 14" shape-rendering="crispEdges" width="72" height="56"><rect x="12" y="1" width="1" height="1" fill="#33241b"/><rect x="13" y="1" width="1" height="1" fill="#33241b"/><rect x="2" y="2" width="1" height="1" fill="#33241b"/><rect x="3" y="2" width="1" height="1" fill="#33241b"/><rect x="11" y="2" width="1" height="1" fill="#33241b"/><rect x="12" y="2" width="1" height="1" fill="#4a3b2f"/><rect x="13" y="2" width="1" height="1" fill="#4a3b2f"/><rect x="14" y="2" width="1" height="1" fill="#33241b"/><rect x="1" y="3" width="1" height="1" fill="#33241b"/><rect x="2" y="3" width="1" height="1" fill="#4a3b2f"/><rect x="3" y="3" width="1" height="1" fill="#4a3b2f"/><rect x="4" y="3" width="1" height="1" fill="#33241b"/><rect x="10" y="3" width="1" height="1" fill="#33241b"/><rect x="11" y="3" width="1" height="1" fill="#4a3b2f"/><rect x="12" y="3" width="1" height="1" fill="#4a3b2f"/><rect x="13" y="3" width="1" height="1" fill="#4a3b2f"/><rect x="14" y="3" width="1" height="1" fill="#4a3b2f"/><rect x="15" y="3" width="1" height="1" fill="#33241b"/><rect x="1" y="4" width="1" height="1" fill="#33241b"/><rect x="2" y="4" width="1" height="1" fill="#4a3b2f"/><rect x="3" y="4" width="1" height="1" fill="#2c2119"/><rect x="4" y="4" width="1" height="1" fill="#33241b"/><rect x="9" y="4" width="1" height="1" fill="#33241b"/><rect x="10" y="4" width="1" height="1" fill="#4a3b2f"/><rect x="11" y="4" width="1" height="1" fill="#4a3b2f"/><rect x="12" y="4" width="1" height="1" fill="#4a3b2f"/><rect x="13" y="4" width="1" height="1" fill="#4a3b2f"/><rect x="14" y="4" width="1" height="1" fill="#4a3b2f"/><rect x="15" y="4" width="1" height="1" fill="#4a3b2f"/><rect x="16" y="4" width="1" height="1" fill="#33241b"/><rect x="1" y="5" width="1" height="1" fill="#33241b"/><rect x="2" y="5" width="1" height="1" fill="#4a3b2f"/><rect x="3" y="5" width="1" height="1" fill="#4a3b2f"/><rect x="4" y="5" width="1" height="1" fill="#4a3b2f"/><rect x="5" y="5" width="1" height="1" fill="#33241b"/><rect x="6" y="5" width="1" height="1" fill="#33241b"/><rect x="7" y="5" width="1" height="1" fill="#33241b"/><rect x="8" y="5" width="1" height="1" fill="#33241b"/><rect x="9" y="5" width="1" height="1" fill="#4a3b2f"/><rect x="10" y="5" width="1" height="1" fill="#4a3b2f"/><rect x="11" y="5" width="1" height="1" fill="#4a3b2f"/><rect x="12" y="5" width="1" height="1" fill="#4a3b2f"/><rect x="13" y="5" width="1" height="1" fill="#4a3b2f"/><rect x="14" y="5" width="1" height="1" fill="#4a3b2f"/><rect x="15" y="5" width="1" height="1" fill="#33241b"/><rect x="2" y="6" width="1" height="1" fill="#33241b"/><rect x="3" y="6" width="1" height="1" fill="#4a3b2f"/><rect x="4" y="6" width="1" height="1" fill="#4a3b2f"/><rect x="5" y="6" width="1" height="1" fill="#4a3b2f"/><rect x="6" y="6" width="1" height="1" fill="#4a3b2f"/><rect x="7" y="6" width="1" height="1" fill="#4a3b2f"/><rect x="8" y="6" width="1" height="1" fill="#4a3b2f"/><rect x="9" y="6" width="1" height="1" fill="#4a3b2f"/><rect x="10" y="6" width="1" height="1" fill="#4a3b2f"/><rect x="11" y="6" width="1" height="1" fill="#4a3b2f"/><rect x="12" y="6" width="1" height="1" fill="#4a3b2f"/><rect x="13" y="6" width="1" height="1" fill="#4a3b2f"/><rect x="14" y="6" width="1" height="1" fill="#33241b"/><rect x="15" y="6" width="1" height="1" fill="#f7eee0"/><rect x="2" y="7" width="1" height="1" fill="#33241b"/><rect x="3" y="7" width="1" height="1" fill="#4a3b2f"/><rect x="4" y="7" width="1" height="1" fill="#2c2119"/><rect x="5" y="7" width="1" height="1" fill="#4a3b2f"/><rect x="6" y="7" width="1" height="1" fill="#4a3b2f"/><rect x="7" y="7" width="1" height="1" fill="#4a3b2f"/><rect x="8" y="7" width="1" height="1" fill="#4a3b2f"/><rect x="9" y="7" width="1" height="1" fill="#4a3b2f"/><rect x="10" y="7" width="1" height="1" fill="#4a3b2f"/><rect x="11" y="7" width="1" height="1" fill="#4a3b2f"/><rect x="12" y="7" width="1" height="1" fill="#4a3b2f"/><rect x="13" y="7" width="1" height="1" fill="#4a3b2f"/><rect x="14" y="7" width="1" height="1" fill="#33241b"/><rect x="15" y="7" width="1" height="1" fill="#33241b"/><rect x="2" y="8" width="1" height="1" fill="#33241b"/><rect x="3" y="8" width="1" height="1" fill="#4a3b2f"/><rect x="4" y="8" width="1" height="1" fill="#4a3b2f"/><rect x="5" y="8" width="1" height="1" fill="#4a3b2f"/><rect x="6" y="8" width="1" height="1" fill="#4a3b2f"/><rect x="7" y="8" width="1" height="1" fill="#4a3b2f"/><rect x="8" y="8" width="1" height="1" fill="#4a3b2f"/><rect x="9" y="8" width="1" height="1" fill="#4a3b2f"/><rect x="10" y="8" width="1" height="1" fill="#4a3b2f"/><rect x="11" y="8" width="1" height="1" fill="#4a3b2f"/><rect x="12" y="8" width="1" height="1" fill="#4a3b2f"/><rect x="13" y="8" width="1" height="1" fill="#4a3b2f"/><rect x="14" y="8" width="1" height="1" fill="#33241b"/><rect x="2" y="9" width="1" height="1" fill="#33241b"/><rect x="3" y="9" width="1" height="1" fill="#4a3b2f"/><rect x="4" y="9" width="1" height="1" fill="#4a3b2f"/><rect x="5" y="9" width="1" height="1" fill="#4a3b2f"/><rect x="6" y="9" width="1" height="1" fill="#4a3b2f"/><rect x="7" y="9" width="1" height="1" fill="#4a3b2f"/><rect x="8" y="9" width="1" height="1" fill="#4a3b2f"/><rect x="9" y="9" width="1" height="1" fill="#4a3b2f"/><rect x="10" y="9" width="1" height="1" fill="#4a3b2f"/><rect x="11" y="9" width="1" height="1" fill="#4a3b2f"/><rect x="12" y="9" width="1" height="1" fill="#4a3b2f"/><rect x="13" y="9" width="1" height="1" fill="#4a3b2f"/><rect x="14" y="9" width="1" height="1" fill="#33241b"/><rect x="2" y="10" width="1" height="1" fill="#33241b"/><rect x="3" y="10" width="1" height="1" fill="#4a3b2f"/><rect x="4" y="10" width="1" height="1" fill="#33241b"/><rect x="5" y="10" width="1" height="1" fill="#33241b"/><rect x="6" y="10" width="1" height="1" fill="#4a3b2f"/><rect x="7" y="10" width="1" height="1" fill="#33241b"/><rect x="8" y="10" width="1" height="1" fill="#33241b"/><rect x="9" y="10" width="1" height="1" fill="#4a3b2f"/><rect x="10" y="10" width="1" height="1" fill="#33241b"/><rect x="11" y="10" width="1" height="1" fill="#33241b"/><rect x="12" y="10" width="1" height="1" fill="#4a3b2f"/><rect x="13" y="10" width="1" height="1" fill="#33241b"/><rect x="2" y="11" width="1" height="1" fill="#33241b"/><rect x="3" y="11" width="1" height="1" fill="#4a3b2f"/><rect x="4" y="11" width="1" height="1" fill="#33241b"/><rect x="5" y="11" width="1" height="1" fill="#33241b"/><rect x="6" y="11" width="1" height="1" fill="#4a3b2f"/><rect x="7" y="11" width="1" height="1" fill="#33241b"/><rect x="8" y="11" width="1" height="1" fill="#33241b"/><rect x="9" y="11" width="1" height="1" fill="#4a3b2f"/><rect x="10" y="11" width="1" height="1" fill="#33241b"/><rect x="11" y="11" width="1" height="1" fill="#33241b"/><rect x="12" y="11" width="1" height="1" fill="#4a3b2f"/><rect x="13" y="11" width="1" height="1" fill="#33241b"/><rect x="2" y="12" width="1" height="1" fill="#33241b"/><rect x="3" y="12" width="1" height="1" fill="#33241b"/><rect x="5" y="12" width="1" height="1" fill="#33241b"/><rect x="6" y="12" width="1" height="1" fill="#33241b"/><rect x="8" y="12" width="1" height="1" fill="#33241b"/><rect x="9" y="12" width="1" height="1" fill="#33241b"/><rect x="11" y="12" width="1" height="1" fill="#33241b"/><rect x="12" y="12" width="1" height="1" fill="#33241b"/></svg>